<?xml version="1.0" encoding="utf-8"?>
<!-- Generator: Adobe Illustrator 22.0.0, SVG Export Plug-In . SVG Version: 6.00 Build 0)  -->
<svg version="1.1" id="Capa_1" focusable="false" xmlns="http://www.w3.org/2000/svg" xmlns:xlink="http://www.w3.org/1999/xlink"
	 x="0px" y="0px" viewBox="0 0 512 512" enable-background="new 0 0 512 512" xml:space="preserve">
<path d="M256,8C119.03,8,8,119.03,8,256s111.03,248,248,248s248-111.03,248-248S392.97,8,256,8z M256,56c110.53,0,200,89.45,200,200
	c0,110.53-89.45,200-200,200c-110.53,0-200-89.45-200-200C56,145.47,145.45,56,256,56 M396.2,186.27l-22.54-22.72
	c-4.67-4.71-12.27-4.74-16.97-0.07L215.35,303.7l-59.79-60.28c-4.67-4.71-12.26-4.74-16.97-0.07l-22.72,22.54
	c-4.71,4.67-4.74,12.27-0.07,16.97l90.78,91.52c4.67,4.7,12.26,4.74,16.97,0.07l172.59-171.2
	C400.84,198.57,400.87,190.97,396.2,186.27L396.2,186.27z"/>
</svg>
