<svg id="Capa_1" data-name="Capa 1" xmlns="http://www.w3.org/2000/svg" viewBox="0 0 64.56 55.3"><title>cloud</title><rect width="64.56" height="55.3" fill="none"/><path d="M54.53,36.29a.27.27,0,0,0-.15,0,10.34,10.34,0,0,0-19.61-2.88,8.88,8.88,0,0,0,.47,17.74l19.29-.06a7.42,7.42,0,0,0,0-14.83Zm0,9H35.24a3,3,0,0,1,0-5.93H39v-.74a5.2,5.2,0,1,1,10.39,0v3.7h5.22A1.47,1.47,0,0,1,56,43.77,1.52,1.52,0,0,1,54.56,45.25ZM20.41,4.49v6.2a17.7,17.7,0,0,0-5.93,29.93V33.38h5.93v17.8H2.61V45.25h8.1a23.67,23.67,0,0,1,9.7-40.76ZM50.08,9.65H42a23.68,23.68,0,0,1,7.89,14.83h-6a17.79,17.79,0,0,0-5.67-10.2v7.24H32.28V3.72h17.8Z" fill="#075396"/></svg>