<?xml version="1.0" encoding="utf-8"?>
<!-- Generator: Adobe Illustrator 22.0.0, SVG Export Plug-In . SVG Version: 6.00 Build 0)  -->
<svg version="1.1" id="Capa_1" xmlns="http://www.w3.org/2000/svg" xmlns:xlink="http://www.w3.org/1999/xlink" x="0px" y="0px"
	 viewBox="0 0 123.78 108.37" enable-background="new 0 0 123.78 108.37" xml:space="preserve">
<g>
	<defs>
		<rect id="SVGID_1_" width="123.78" height="108.37"/>
	</defs>
	<clipPath id="SVGID_2_">
		<use xlink:href="#SVGID_1_"  overflow="visible"/>
	</clipPath>
	<path clip-path="url(#SVGID_2_)" fill="#060708" d="M33.06,81.8c-2.76-6.09-5.44-12-8.27-18.24c5.35-2.17,10.49-4.44,15.77-6.33
		c2.82-1.01,5.7-0.21,8.22,1.4c2.58,1.65,5.08,3.41,7.6,5.15c3.41,2.35,7.17,3.6,11.31,3.74c2.04,0.07,4.08,0.11,6.11,0.3
		c1.22,0.12,2.44,0.46,2.62,2.03c0.16,1.39-0.46,2.3-2.12,2.86c-0.78,0.26-1.61,0.53-2.41,0.53c-5.1-0.02-10.2,0.04-15.28-0.26
		c-2.22-0.13-4.39-1.07-6.97-1.74c2.67,2.45,5.24,4.57,8.6,4.73c4.99,0.23,10,0.06,14.99-0.05c0.98-0.02,1.99-0.45,2.9-0.88
		c2.22-1.07,3.46-2.84,3.12-5.38c-0.12-0.91,0.21-1.27,0.92-1.68c3.02-1.76,5.97-3.64,9.03-5.34c1.47-0.82,3.06-1.47,4.67-1.95
		c0.82-0.25,1.86-0.13,2.7,0.13c2.44,0.75,3.21,3.24,1.58,5.19c-0.83,0.99-1.85,1.87-2.93,2.59c-8.52,5.61-17.12,11.1-25.59,16.78
		c-4.1,2.75-8.1,2.77-12.34,0.53c-4.38-2.32-8.82-4.5-13.18-6.86c-2.53-1.37-4.84-1.45-7.19,0.33
		C35.75,80.25,34.46,80.93,33.06,81.8"/>
	<path clip-path="url(#SVGID_2_)" fill="#060708" d="M79.33,50.74c1.41,1.51,2.49,2.65,3.86,4.12c4.07-1.48,7-0.37,8.47,4.04
		c-1.64,1.03-3.31,2.08-4.98,3.12c-2.18,1.36-4.37,2.69-6.52,4.09c-0.76,0.5-1.35,0.56-2.25,0.18c-1.31-0.55-2.76-0.85-4.17-0.9
		c-3.71-0.13-7.43-0.26-10.9-1.77c-1.97-0.85-3.75-2.22-5.57-3.42c-1.14-0.75-1.04-1.89-0.07-2.55c1.12-0.76,2.47-1.12,3.73-1.64
		c0.44-0.18,1.05-0.16,1.31-0.49c2.31-2.88,4.76-3.25,7.94-1.02c1.17-1.7,2.63-2.98,4.68-3.34c0.36-0.06,0.79-0.58,0.93-0.99
		c0.61-1.75,1.14-3.54,1.65-5.33c0.29-1.01-0.09-1.54-1.12-1.61c-1.79-0.12-3.59-0.2-5.36-0.53c-4.22-0.79-6.65-3.63-7-8.21
		c-0.44-5.74,0.62-11.15,3.46-16.06c1.3-2.25,2.86-4.33,4.16-6.59c1.07-1.86,1.93-3.87,2.96-5.98c0.84,0.62,1.89,1.34,2.88,2.16
		c3.34,2.75,6.91,5.24,9.92,8.37c5.6,5.82,6.89,13.59,3.72,20.88c-0.82,1.89-2.21,3.56-3.58,5.08c-1.02,1.13-2.5,1.41-4.18,1.04
		c0.52-9.61,1.41-19.27-4.8-27.45c2.15,5.71,3.3,11.59,3.04,17.78C81.28,39.81,81.09,45.9,79.33,50.74"/>
	<rect x="-63" y="37.37" clip-path="url(#SVGID_2_)" fill="#38529C" width="28.5" height="9.5"/>
	<path clip-path="url(#SVGID_2_)" fill="#060708" d="M98.73,24.25l-3.31,2.38c14.72,17.9,12.8,44.38-4.65,59.94
		c-17.89,15.95-45.33,14.37-61.28-3.52c-15.95-17.89-14.37-45.33,3.52-61.28c9.53-8.49,21.77-11.99,33.53-10.73l0.77-4
		c-12.97-1.49-26.49,2.32-37,11.69C10.74,36.18,9.02,66.18,26.46,85.75s47.44,21.29,67.01,3.85
		C112.5,72.65,114.65,43.82,98.73,24.25z"/>
</g>
</svg>
