<?xml version="1.0" encoding="utf-8"?>
<!-- Generator: Adobe Illustrator 22.0.0, SVG Export Plug-In . SVG Version: 6.00 Build 0)  -->
<svg version="1.1" xmlns="http://www.w3.org/2000/svg" xmlns:xlink="http://www.w3.org/1999/xlink" x="0px" y="0px"
	 viewBox="0 0 133.93 108.37" enable-background="new 0 0 133.93 108.37" xml:space="preserve">
<g id="Capa_1" display="none">
	<g display="inline">
		<defs>
			<rect id="SVGID_1_" width="133.93" height="108.37"/>
		</defs>
		<clipPath id="SVGID_2_">
			<use xlink:href="#SVGID_1_"  overflow="visible"/>
		</clipPath>
		<path clip-path="url(#SVGID_2_)" fill="#060708" d="M95.72,33.96c0.12-0.59,0.46-1.06,0.96-1.72c1.27,1.6,2.39,3,3.33,4.18
			c-0.47-0.59,1.66-3.21,2.06-3.58c0.49-0.45,3.19-2.52,3.55-1.16c0.1,0.37-0.07,0.75-0.23,1.09c-0.43,0.9-1.18,2.35-0.86,3.32
			c1.25-0.63,1.93-1.98,2.86-2.95c0.04-0.04,0.23,2.2-0.02,2.66c-0.38,0.72-1.19,1.32-1.81,1.8c2.25,2.81,4.49,5.63,6.77,8.43
			c0.6,0.73,1.41,1.49,0.54,2.36c-0.65,0.66-1.79,1.52-2.47,1.34c-2.52-0.66-4.97,0.04-7.43-0.02c-3.89-0.1-6.39,2.09-8.71,4.67
			c-0.68,0.75-1.2,1.7-1.59,2.65c-1.43,3.51-3.75,6.22-7.06,8.07c-0.35,0.2-0.89,0.49-0.91,0.77c-0.18,2.61-0.47,5.24-0.33,7.85
			c0.17,2.92,1.23,5.61,3.36,7.79c-2.73,0.97-3.36,0.17-4.81-1.8c-1.46-1.98-0.52-3.91-1.09-5.74c-0.64-2.05-1.63-4-2.53-6.17
			c0.09-0.06,0.46-0.34,0.87-0.57c2.48-1.42,3.8-3.53,4-6.4c0.12-1.64,0.39-3.27,0.65-4.89c0.24-1.5,0.97-2.21,2.56-1.44
			c0.6,0.29,1.27,0.58,1.9,0.58c0.7-0.01,1.62-0.15,2.03-0.61c0.41-0.47,0.66-1.62,0.37-2.07c-1.17-1.79-2.55-3.43-3.91-5.09
			c-0.2-0.25-0.64-0.39-0.98-0.42c-1.27-0.09-2.22-0.53-3.04-1.64c-0.46-0.62-1.52-0.79-2.75-1.37c0.15,1.35,0.24,2.22,0.33,3.13
			c-0.38,0.23-0.95,0.42-1.27,0.81c-2.95,3.69-7,3.26-10.99,2.93c-4.75-0.4-9.48-1.11-14.24-1.29c-7.37-0.26-9.25,5.64-8.58,10.85
			c0.11,0.91,0.37,1.8,0.63,2.68c0.13,0.46,0.41,0.89,0.63,1.36c-1.8,2.53-4.18,4.96-3.58,8.45c0.52,3.02,1.49,5.97,2.3,9.13
			c-0.53,0-1.24-0.03-1.95,0.01c-0.97,0.05-1.45-0.3-1.51-1.35c-0.04-0.83,0.21-1.94-1.15-2.17c-0.13-0.02-0.19-0.78-0.18-1.18
			c0.06-1.59,0.22-3.18,0.24-4.77c0.05-3.66-0.2-7.29,0.73-10.94c0.88-3.46,0.12-6.9-1.53-10.24c-0.34,2.75-0.61,5.52-1.05,8.25
			c-0.13,0.83-0.63,1.65-1.1,2.38c-0.48,0.75-1.14,1.38-2.05,2.45c-0.03-2.32-0.67-4.17,1.28-5.71c0.59-0.47,0.71-1.63,0.88-2.51
			c0.74-3.81,0.87-7.63,0.31-11.5c-0.63-4.37,1.96-7.2,6.43-7.38c4.94-0.2,9.83,0.21,14.55,1.58c5.78,1.68,11.45,1.16,17.25,0.3
			c3.1-0.46,6.36-0.36,9.49-0.03c3.27,0.35,7.77,0.89,10.78-0.71c-0.15,0.08-1.86-2.97-1.93-3.32
			C95.66,34.64,95.65,34.28,95.72,33.96"/>
		<path clip-path="url(#SVGID_2_)" fill="#060708" d="M67.03,81.01c-0.59-0.33-1.19-0.66-1.78-0.99l-0.1,0.1
			c0.05,0.11,0.09,0.22,0.16,0.36c-0.69-0.06-1.12,0.19-1.28,0.92c-0.34-0.29-0.63-0.53-0.93-0.78c-0.66-0.57-0.68-0.57-1.4-0.08
			c-0.2,0.13-0.42,0.24-0.62,0.36c-0.05-0.04-0.09-0.08-0.14-0.13c0.28-0.32,0.53-0.66,0.83-0.96c0.28-0.27,0.36-0.53,0.16-0.87
			c-0.22-0.38-0.31-0.84-0.62-1.14c-0.4-0.37-0.93-0.64-1.44-0.9c-0.37-0.19-0.8-0.28-1.2-0.43c-0.79-0.31-1.47-0.73-1.9-1.45
			c-0.19-0.31-0.51-0.55-0.72-0.85c-0.06-0.09-0.01-0.36,0.08-0.41c0.55-0.29,0.63-0.44,0.36-0.97c-0.06-0.12-0.14-0.24-0.23-0.35
			c-0.43-0.47-0.4-0.6,0.22-0.87c0.08-0.03,0.15-0.07,0.18-0.08c-0.74-0.36-1.53-0.67-2.21-1.11c-0.65-0.42-1.46-0.76-1.65-1.66
			c0.29-0.01,0.49-0.02,0.84-0.04c-0.32-0.31-0.59-0.56-0.84-0.81c-1.04-1.03-1.18-1.92-0.5-3.17c0.32-0.58,0.63-0.69,1.11-0.24
			c1.13,1.08,2.47,1.35,4.04,1.19c1.3-0.13,2.62-0.13,3.94-0.12c0.67,0,1.35,0.11,1.99,0.26c2.09,0.5,4.75-0.75,5.51-2.59
			c0.24-0.58,0.56-1.15,0.91-1.69c0.4-0.62,1.01-1.04,1.71-1.31c0.18-0.18,0.35-0.36,0.55-0.52c0.24-0.21,0.53-0.38,0.75-0.6
			c0.44-0.46,0.89-0.51,1.43-0.2c0.32,0.18,0.71,0.26,1.06,0.41c0.3,0.13,0.6,0.26,0.86,0.44c0.1,0.07,0.18,0.33,0.12,0.41
			c-0.51,0.63-0.22,1.28-0.08,1.92c0.03,0.15,0.06,0.3,0.12,0.55c-0.43-0.08-0.81-0.15-1.2-0.22c-0.01,0.05-0.05,0.11-0.05,0.17
			c0.03,0.67-0.21,1.23-0.8,1.66c-0.23,0.16-0.37,0.35-0.2,0.66c1.47,2.71,0.84,5.16-1.2,7.4c-1.09,1.2-2.42,2.07-4.08,2.62
			c-1.32,0.43-2.52,1.2-3.74,1.86c-0.17,0.09-0.25,0.42-0.26,0.64c-0.01,0.19,0.12,0.39,0.21,0.58c0.53,1.11,0.63,1.16,1.94,1
			c0.18-0.02,0.37-0.03,0.61-0.04c-0.1,0.19-0.17,0.33-0.27,0.51c0.3,0.15,0.59,0.3,0.88,0.44c-0.01,0.04-0.02,0.08-0.02,0.13
			c-0.57-0.03-1.15-0.06-1.79-0.1c0.29,0.36,0.55,0.68,0.81,1C67.12,80.95,67.07,80.98,67.03,81.01 M64.78,79.3
			c-0.35-0.47-0.65-0.88-0.96-1.28c-0.48-0.62-0.59-0.64-1.35-0.31C62.91,79.47,63.09,79.41,64.78,79.3"/>
	</g>
	<path display="inline" fill="#FFFFFF" d="M64.09,98.32c-24.34,0-44.13-19.8-44.13-44.13c0-24.34,19.8-44.13,44.13-44.13
		c13.84,0,26.63,6.35,35.07,17.42l-4.67,3.56c-7.32-9.6-18.41-15.1-30.4-15.1c-21.1,0-38.26,17.16-38.26,38.26
		c0,21.09,17.17,38.26,38.26,38.26s38.26-17.16,38.26-38.26c-0.03-0.48-0.04-0.67-0.05-0.86l5.87-0.11c0.03,0.5,0.04,0.73,0.04,0.97
		C108.23,78.52,88.43,98.32,64.09,98.32"/>
</g>
<g id="Capa_1_copia">
	<g>
		<path fill="#E6AC2B" d="M143.37,85.55c-2.76-6.09-5.44-12-8.27-18.24c5.35-2.17,10.49-4.44,15.77-6.33
			c2.82-1.01,5.7-0.21,8.22,1.4c2.58,1.65,5.08,3.41,7.6,5.15c3.41,2.35,7.17,3.6,11.31,3.74c2.04,0.07,4.08,0.11,6.11,0.3
			c1.22,0.11,2.44,0.46,2.62,2.03c0.16,1.39-0.46,2.3-2.12,2.86c-0.78,0.26-1.6,0.53-2.41,0.53c-5.1-0.02-10.2,0.04-15.28-0.26
			c-2.22-0.13-4.39-1.07-6.97-1.73c2.67,2.45,5.24,4.57,8.6,4.73c4.99,0.23,10,0.06,14.99-0.05c0.98-0.02,1.99-0.45,2.9-0.89
			c2.22-1.07,3.46-2.84,3.12-5.38c-0.12-0.91,0.21-1.27,0.91-1.68c3.02-1.76,5.97-3.64,9.03-5.34c1.47-0.82,3.06-1.47,4.67-1.95
			c0.82-0.25,1.86-0.13,2.7,0.13c2.44,0.75,3.21,3.24,1.58,5.19c-0.83,0.99-1.85,1.87-2.93,2.59c-8.52,5.61-17.12,11.1-25.59,16.78
			c-4.1,2.75-8.1,2.78-12.34,0.53c-4.38-2.32-8.82-4.5-13.18-6.87c-2.53-1.37-4.84-1.45-7.19,0.33
			C146.06,84,144.77,84.68,143.37,85.55"/>
		<path fill="#E6AC2B" d="M188.42,56.43c1.34,1.32,2.36,2.33,3.66,3.61c3.86-1.3,6.63-0.32,8.02,3.54c-1.55,0.9-3.13,1.82-4.72,2.74
			c-2.06,1.19-4.14,2.36-6.18,3.58c-0.72,0.44-1.27,0.49-2.13,0.16c-1.24-0.48-2.62-0.75-3.95-0.79c-3.51-0.11-7.03-0.23-10.32-1.55
			c-1.86-0.75-3.55-1.94-5.28-3c-1.08-0.66-0.99-1.66-0.07-2.23c1.06-0.66,2.34-0.98,3.53-1.44c0.41-0.16,0.99-0.14,1.24-0.43
			c2.19-2.52,4.51-2.85,7.51-0.9c1.11-1.49,2.49-2.62,4.43-2.93c0.34-0.06,0.74-0.51,0.88-0.87c0.57-1.54,1.08-3.1,1.56-4.67
			c0.27-0.89-0.09-1.35-1.06-1.41c-1.69-0.1-3.4-0.18-5.07-0.47c-4-0.7-6.29-3.18-6.63-7.2c-0.42-5.03,0.59-9.78,3.28-14.08
			c1.23-1.98,2.71-3.8,3.94-5.78c1.01-1.64,1.83-3.4,2.8-5.24c0.79,0.55,1.79,1.18,2.73,1.89c3.16,2.41,6.55,4.6,9.4,7.34
			c5.3,5.1,6.52,11.92,3.52,18.31c-0.78,1.66-2.1,3.12-3.39,4.45c-0.96,0.99-2.37,1.24-3.96,0.91c0.49-8.43,1.33-16.9-4.54-24.07
			c2.04,5,3.13,10.17,2.88,15.6C190.27,46.85,190.09,52.19,188.42,56.43"/>
	</g>
	<g>
		<defs>
			<rect id="SVGID_3_" width="133.93" height="108.37"/>
		</defs>
		<clipPath id="SVGID_4_">
			<use xlink:href="#SVGID_3_"  overflow="visible"/>
		</clipPath>
		<g clip-path="url(#SVGID_4_)">
			<path fill="#060708" d="M58.28,81.08c-0.65-0.36-1.31-0.72-1.96-1.09l-0.11,0.11c0.05,0.12,0.1,0.24,0.18,0.4
				c-0.76-0.07-1.23,0.21-1.41,1.01c-0.37-0.31-0.7-0.58-1.02-0.86c-0.73-0.63-0.75-0.63-1.54-0.09c-0.22,0.15-0.46,0.27-0.69,0.4
				c-0.05-0.05-0.1-0.09-0.16-0.14c0.3-0.35,0.58-0.73,0.92-1.05c0.31-0.3,0.39-0.58,0.18-0.95c-0.24-0.42-0.35-0.93-0.68-1.25
				c-0.44-0.41-1.03-0.7-1.59-0.99c-0.41-0.21-0.89-0.31-1.32-0.48c-0.87-0.34-1.62-0.81-2.09-1.59c-0.21-0.34-0.56-0.6-0.79-0.93
				c-0.07-0.1-0.01-0.4,0.09-0.45c0.61-0.31,0.69-0.48,0.4-1.07c-0.07-0.13-0.15-0.27-0.26-0.38c-0.47-0.52-0.44-0.66,0.24-0.96
				c0.09-0.04,0.17-0.08,0.2-0.09c-0.82-0.4-1.68-0.74-2.44-1.23c-0.71-0.46-1.61-0.84-1.82-1.83c0.32-0.02,0.54-0.03,0.92-0.05
				c-0.36-0.34-0.65-0.62-0.93-0.9c-1.14-1.14-1.29-2.12-0.55-3.49c0.35-0.64,0.69-0.76,1.22-0.26c1.24,1.19,2.72,1.48,4.45,1.31
				c1.43-0.14,2.89-0.15,4.33-0.13c0.73,0.01,1.48,0.12,2.19,0.29c2.3,0.55,5.23-0.83,6.07-2.85c0.26-0.64,0.62-1.27,1-1.86
				c0.45-0.69,1.12-1.15,1.89-1.44c0.2-0.19,0.39-0.39,0.6-0.57c0.27-0.23,0.58-0.42,0.82-0.67c0.49-0.5,0.97-0.56,1.58-0.22
				c0.36,0.2,0.78,0.29,1.17,0.45c0.33,0.14,0.66,0.29,0.95,0.48c0.11,0.08,0.2,0.36,0.13,0.45c-0.56,0.69-0.24,1.4-0.09,2.11
				c0.03,0.16,0.07,0.33,0.13,0.61c-0.48-0.09-0.89-0.17-1.33-0.25c-0.02,0.06-0.05,0.12-0.05,0.19c0.03,0.74-0.23,1.36-0.88,1.83
				c-0.25,0.18-0.41,0.38-0.22,0.72c1.62,2.98,0.92,5.68-1.32,8.14c-1.2,1.32-2.66,2.28-4.49,2.88c-1.46,0.48-2.77,1.32-4.12,2.04
				c-0.19,0.1-0.27,0.46-0.29,0.7c-0.01,0.21,0.13,0.43,0.23,0.63c0.58,1.22,0.69,1.27,2.14,1.1c0.2-0.03,0.41-0.03,0.68-0.05
				c-0.11,0.2-0.19,0.36-0.29,0.56c0.33,0.17,0.65,0.33,0.97,0.49c-0.01,0.05-0.02,0.09-0.02,0.14c-0.63-0.03-1.26-0.07-1.97-0.11
				c0.32,0.4,0.61,0.75,0.9,1.1C58.38,81.01,58.33,81.04,58.28,81.08 M55.81,79.2c-0.39-0.52-0.71-0.97-1.05-1.41
				c-0.52-0.68-0.65-0.71-1.49-0.34C53.75,79.38,53.94,79.31,55.81,79.2"/>
			<path fill="#060708" d="M89.87,29.28c0.13-0.65,0.51-1.17,1.06-1.9c1.4,1.76,2.63,3.3,3.67,4.61c-0.52-0.65,1.82-3.53,2.27-3.95
				c0.54-0.5,3.51-2.78,3.91-1.27c0.11,0.4-0.07,0.82-0.25,1.2c-0.47,1-1.3,2.59-0.95,3.65c1.38-0.69,2.13-2.18,3.15-3.25
				c0.05-0.05,0.25,2.42-0.02,2.93c-0.41,0.79-1.31,1.45-1.99,1.98c2.48,3.1,4.95,6.2,7.45,9.28c0.66,0.81,1.55,1.64,0.6,2.6
				c-0.72,0.72-1.98,1.67-2.72,1.48c-2.78-0.72-5.47,0.05-8.18-0.02c-4.28-0.11-7.03,2.3-9.59,5.14c-0.75,0.83-1.33,1.88-1.75,2.92
				c-1.58,3.87-4.12,6.84-7.77,8.89c-0.38,0.22-0.98,0.54-1,0.85c-0.2,2.88-0.52,5.77-0.36,8.64c0.18,3.21,1.36,6.18,3.7,8.57
				c-3.01,1.06-3.7,0.18-5.3-1.98c-1.61-2.18-0.57-4.31-1.2-6.32c-0.71-2.26-1.79-4.41-2.79-6.79c0.09-0.06,0.51-0.37,0.95-0.63
				c2.73-1.56,4.18-3.88,4.4-7.04c0.13-1.8,0.43-3.6,0.72-5.39c0.27-1.65,1.07-2.43,2.82-1.58c0.66,0.32,1.4,0.64,2.1,0.64
				c0.77-0.01,1.79-0.16,2.23-0.67c0.45-0.52,0.73-1.78,0.4-2.28c-1.28-1.97-2.81-3.78-4.3-5.61c-0.22-0.27-0.7-0.43-1.08-0.46
				c-1.4-0.1-2.45-0.59-3.34-1.8c-0.5-0.68-1.68-0.87-3.02-1.5c0.16,1.49,0.26,2.44,0.37,3.44c-0.42,0.26-1.05,0.46-1.4,0.89
				c-3.25,4.06-7.71,3.59-12.1,3.22c-5.23-0.44-10.44-1.23-15.68-1.42c-8.11-0.29-10.18,6.21-9.45,11.95c0.13,1,0.41,1.98,0.69,2.95
				c0.15,0.51,0.45,0.97,0.7,1.5c-1.98,2.78-4.6,5.46-3.95,9.3c0.57,3.33,1.64,6.58,2.53,10.06c-0.58,0-1.37-0.03-2.15,0.01
				c-1.07,0.06-1.6-0.33-1.66-1.49c-0.05-0.92,0.23-2.13-1.27-2.39c-0.14-0.02-0.21-0.85-0.19-1.3c0.06-1.75,0.24-3.5,0.26-5.25
				c0.05-4.03-0.22-8.03,0.8-12.04c0.97-3.81,0.13-7.6-1.68-11.27c-0.37,3.03-0.68,6.07-1.16,9.09c-0.15,0.92-0.69,1.81-1.21,2.62
				c-0.53,0.82-1.26,1.52-2.26,2.69c-0.04-2.55-0.74-4.6,1.41-6.29c0.65-0.51,0.78-1.8,0.97-2.76c0.82-4.2,0.96-8.4,0.35-12.66
				c-0.69-4.81,2.16-7.92,7.08-8.13c5.43-0.22,10.83,0.23,16.02,1.74c6.36,1.85,12.6,1.28,18.99,0.33c3.42-0.51,7-0.4,10.45-0.03
				c3.61,0.39,8.55,0.98,11.87-0.78c-0.17,0.09-2.05-3.27-2.13-3.65C89.8,30.03,89.8,29.63,89.87,29.28"/>
		</g>
	</g>
	<path fill="#FFFFFF" d="M-62.09,96.19c-24.34,0-44.13-19.8-44.13-44.13c0-24.34,19.8-44.13,44.13-44.13
		c13.84,0,26.63,6.35,35.07,17.42l-4.67,3.56c-7.32-9.6-18.41-15.1-30.4-15.1c-21.1,0-38.26,17.16-38.26,38.26
		c0,21.1,17.17,38.26,38.26,38.26s38.26-17.16,38.26-38.26c-0.03-0.48-0.04-0.67-0.05-0.86l5.87-0.11c0.03,0.5,0.04,0.73,0.04,0.97
		C-17.96,76.39-37.76,96.19-62.09,96.19"/>
</g>
</svg>
