<?xml version="1.0" encoding="utf-8"?>
<!-- Generator: Adobe Illustrator 22.0.0, SVG Export Plug-In . SVG Version: 6.00 Build 0)  -->
<svg version="1.1" id="Capa_1" xmlns="http://www.w3.org/2000/svg" xmlns:xlink="http://www.w3.org/1999/xlink" x="0px" y="0px"
	 viewBox="0 0 133.93 108.37" enable-background="new 0 0 133.93 108.37" xml:space="preserve">
<g>
	<defs>
		<rect id="SVGID_1_" width="133.93" height="108.37"/>
	</defs>
	<clipPath id="SVGID_2_">
		<use xlink:href="#SVGID_1_"  overflow="visible"/>
	</clipPath>
	<path clip-path="url(#SVGID_2_)" fill="#FFFFFF" d="M95.72,33.96c0.12-0.59,0.46-1.06,0.96-1.72c1.27,1.6,2.39,3,3.33,4.18
		c-0.47-0.59,1.66-3.21,2.06-3.58c0.49-0.45,3.19-2.52,3.55-1.16c0.1,0.37-0.07,0.75-0.23,1.09c-0.43,0.9-1.18,2.35-0.86,3.32
		c1.25-0.63,1.93-1.98,2.86-2.95c0.04-0.04,0.23,2.2-0.02,2.66c-0.38,0.72-1.19,1.32-1.81,1.8c2.25,2.81,4.49,5.63,6.77,8.43
		c0.6,0.73,1.41,1.49,0.54,2.36c-0.65,0.66-1.79,1.52-2.47,1.34c-2.52-0.66-4.97,0.04-7.43-0.02c-3.89-0.1-6.39,2.09-8.71,4.67
		c-0.68,0.75-1.2,1.7-1.59,2.65c-1.43,3.51-3.75,6.22-7.06,8.07c-0.35,0.2-0.89,0.49-0.91,0.77c-0.18,2.61-0.47,5.24-0.33,7.85
		c0.17,2.92,1.23,5.61,3.36,7.79c-2.73,0.97-3.36,0.17-4.81-1.8c-1.46-1.98-0.52-3.91-1.09-5.74c-0.64-2.05-1.63-4-2.53-6.17
		c0.09-0.06,0.46-0.34,0.87-0.57c2.48-1.42,3.8-3.53,4-6.4c0.12-1.64,0.39-3.27,0.65-4.89c0.24-1.5,0.97-2.21,2.56-1.44
		c0.6,0.29,1.27,0.58,1.9,0.58c0.7-0.01,1.62-0.15,2.03-0.61c0.41-0.47,0.66-1.62,0.37-2.07c-1.17-1.79-2.55-3.43-3.91-5.09
		c-0.2-0.25-0.64-0.39-0.98-0.42c-1.27-0.09-2.22-0.53-3.04-1.64c-0.46-0.62-1.52-0.79-2.75-1.37c0.15,1.35,0.24,2.22,0.33,3.13
		c-0.38,0.23-0.95,0.42-1.27,0.81c-2.95,3.69-7,3.26-10.99,2.93c-4.75-0.4-9.48-1.11-14.24-1.29c-7.37-0.26-9.25,5.64-8.58,10.85
		c0.11,0.91,0.37,1.8,0.63,2.68c0.13,0.46,0.41,0.89,0.63,1.36c-1.8,2.53-4.18,4.96-3.58,8.45c0.52,3.02,1.49,5.97,2.3,9.13
		c-0.53,0-1.24-0.03-1.95,0.01c-0.97,0.05-1.45-0.3-1.51-1.35c-0.04-0.83,0.21-1.94-1.15-2.17c-0.13-0.02-0.19-0.78-0.18-1.18
		c0.06-1.59,0.22-3.18,0.24-4.77c0.05-3.66-0.2-7.29,0.73-10.94c0.88-3.46,0.12-6.9-1.53-10.24c-0.34,2.75-0.61,5.52-1.05,8.25
		c-0.13,0.83-0.63,1.65-1.1,2.38c-0.48,0.75-1.14,1.38-2.05,2.45c-0.03-2.32-0.67-4.17,1.28-5.71c0.59-0.47,0.71-1.63,0.88-2.51
		c0.74-3.81,0.87-7.63,0.31-11.5c-0.63-4.37,1.96-7.2,6.43-7.38c4.94-0.2,9.83,0.21,14.55,1.58c5.78,1.68,11.45,1.16,17.25,0.3
		c3.1-0.46,6.36-0.36,9.49-0.03c3.27,0.35,7.77,0.89,10.78-0.71c-0.15,0.08-1.86-2.97-1.93-3.32
		C95.66,34.64,95.65,34.28,95.72,33.96"/>
	<path clip-path="url(#SVGID_2_)" fill="#FFFFFF" d="M67.03,81.01c-0.59-0.33-1.19-0.66-1.78-0.99l-0.1,0.1
		c0.05,0.11,0.09,0.22,0.16,0.36c-0.69-0.06-1.12,0.19-1.28,0.92c-0.34-0.29-0.63-0.53-0.93-0.78c-0.66-0.57-0.68-0.57-1.4-0.08
		c-0.2,0.13-0.42,0.24-0.62,0.36c-0.05-0.04-0.09-0.08-0.14-0.13c0.28-0.32,0.53-0.66,0.83-0.96c0.28-0.27,0.36-0.53,0.16-0.87
		c-0.22-0.38-0.31-0.84-0.62-1.14c-0.4-0.37-0.93-0.64-1.44-0.9c-0.37-0.19-0.8-0.28-1.2-0.43c-0.79-0.31-1.47-0.73-1.9-1.45
		c-0.19-0.31-0.51-0.55-0.72-0.85c-0.06-0.09-0.01-0.36,0.08-0.41c0.55-0.29,0.63-0.44,0.36-0.97c-0.06-0.12-0.14-0.24-0.23-0.35
		c-0.43-0.47-0.4-0.6,0.22-0.87c0.08-0.03,0.15-0.07,0.18-0.08c-0.74-0.36-1.53-0.67-2.21-1.11c-0.65-0.42-1.46-0.76-1.65-1.66
		c0.29-0.01,0.49-0.02,0.84-0.04c-0.32-0.31-0.59-0.56-0.84-0.81c-1.04-1.03-1.18-1.92-0.5-3.17c0.32-0.58,0.63-0.69,1.11-0.24
		c1.13,1.08,2.47,1.35,4.04,1.19c1.3-0.13,2.62-0.13,3.94-0.12c0.67,0,1.35,0.11,1.99,0.26c2.09,0.5,4.75-0.75,5.51-2.59
		c0.24-0.58,0.56-1.15,0.91-1.69c0.4-0.62,1.01-1.04,1.71-1.31c0.18-0.18,0.35-0.36,0.55-0.52c0.24-0.21,0.53-0.38,0.75-0.6
		c0.44-0.46,0.89-0.51,1.43-0.2c0.32,0.18,0.71,0.26,1.06,0.41c0.3,0.13,0.6,0.26,0.86,0.44c0.1,0.07,0.18,0.33,0.12,0.41
		c-0.51,0.63-0.22,1.28-0.08,1.92c0.03,0.15,0.06,0.3,0.12,0.55c-0.43-0.08-0.81-0.15-1.2-0.22c-0.01,0.05-0.05,0.11-0.05,0.17
		c0.03,0.67-0.21,1.23-0.8,1.66c-0.23,0.16-0.37,0.35-0.2,0.66c1.47,2.71,0.84,5.16-1.2,7.4c-1.09,1.2-2.42,2.07-4.08,2.62
		c-1.32,0.43-2.52,1.2-3.74,1.86c-0.17,0.09-0.25,0.42-0.26,0.64c-0.01,0.19,0.12,0.39,0.21,0.58c0.53,1.11,0.63,1.16,1.94,1
		c0.18-0.02,0.37-0.03,0.61-0.04c-0.1,0.19-0.17,0.33-0.27,0.51c0.3,0.15,0.59,0.3,0.88,0.44c-0.01,0.04-0.02,0.08-0.02,0.13
		c-0.57-0.03-1.15-0.06-1.79-0.1c0.29,0.36,0.55,0.68,0.81,1C67.12,80.95,67.07,80.98,67.03,81.01 M64.78,79.3
		c-0.35-0.47-0.65-0.88-0.96-1.28c-0.48-0.62-0.59-0.64-1.35-0.31C62.91,79.47,63.09,79.41,64.78,79.3"/>
	<path clip-path="url(#SVGID_2_)" fill="#FFFFFF" d="M66.09,98.32c-24.34,0-44.13-19.8-44.13-44.13c0-24.34,19.8-44.13,44.13-44.13
		c13.84,0,26.63,6.35,35.07,17.42l-4.67,3.56c-7.32-9.6-18.41-15.1-30.4-15.1c-21.1,0-38.26,17.16-38.26,38.26
		c0,21.09,17.17,38.26,38.26,38.26s38.26-17.16,38.26-38.26c-0.03-0.48-0.04-0.67-0.05-0.86l5.87-0.11c0.03,0.5,0.04,0.73,0.04,0.97
		C110.23,78.52,90.43,98.32,66.09,98.32"/>
</g>
</svg>
