<?xml version="1.0" encoding="utf-8"?>
<!-- Generator: Adobe Illustrator 22.0.0, SVG Export Plug-In . SVG Version: 6.00 Build 0)  -->
<svg version="1.1" id="Capa_1" xmlns="http://www.w3.org/2000/svg" xmlns:xlink="http://www.w3.org/1999/xlink" x="0px" y="0px"
	 viewBox="0 0 123.78 108.37" enable-background="new 0 0 123.78 108.37" xml:space="preserve">
<g>
	<defs>
		<rect id="SVGID_1_" width="123.78" height="108.37"/>
	</defs>
	<clipPath id="SVGID_2_">
		<use xlink:href="#SVGID_1_"  overflow="visible"/>
	</clipPath>
	<path clip-path="url(#SVGID_2_)" fill="#FFFFFF" d="M33.12,85.55c-2.76-6.09-5.44-12-8.27-18.24c5.35-2.17,10.49-4.44,15.77-6.33
		c2.82-1.01,5.7-0.21,8.22,1.4c2.58,1.65,5.08,3.41,7.6,5.15c3.41,2.35,7.17,3.6,11.31,3.74c2.04,0.07,4.08,0.11,6.11,0.3
		c1.22,0.12,2.44,0.46,2.62,2.03c0.16,1.39-0.46,2.3-2.12,2.86C73.57,76.74,72.74,77,71.94,77c-5.1-0.02-10.2,0.04-15.28-0.26
		c-2.22-0.13-4.39-1.07-6.97-1.74c2.67,2.45,5.24,4.57,8.6,4.73c4.99,0.23,10,0.06,14.99-0.05c0.98-0.02,1.99-0.45,2.9-0.88
		c2.22-1.07,3.46-2.84,3.12-5.38c-0.12-0.91,0.21-1.27,0.92-1.68c3.02-1.76,5.97-3.64,9.03-5.34c1.47-0.82,3.06-1.47,4.67-1.95
		c0.82-0.25,1.86-0.13,2.7,0.13c2.44,0.75,3.21,3.24,1.58,5.19c-0.83,0.99-1.85,1.87-2.93,2.59c-8.52,5.61-17.12,11.1-25.59,16.78
		c-4.1,2.75-8.1,2.77-12.33,0.53c-4.38-2.32-8.82-4.5-13.18-6.86c-2.53-1.37-4.84-1.45-7.19,0.33C35.81,84,34.52,84.68,33.12,85.55"
		/>
	<path clip-path="url(#SVGID_2_)" fill="#FFFFFF" d="M78.17,56.43c1.34,1.32,2.36,2.33,3.66,3.61c3.86-1.3,6.63-0.32,8.02,3.54
		c-1.55,0.9-3.13,1.82-4.72,2.74c-2.06,1.19-4.14,2.36-6.18,3.58c-0.72,0.44-1.28,0.49-2.13,0.16c-1.24-0.48-2.62-0.75-3.95-0.79
		c-3.51-0.11-7.03-0.23-10.32-1.55c-1.86-0.75-3.55-1.94-5.28-3c-1.08-0.66-0.99-1.66-0.07-2.23c1.06-0.66,2.34-0.98,3.53-1.44
		c0.41-0.16,0.99-0.14,1.24-0.43c2.19-2.52,4.51-2.85,7.51-0.9c1.11-1.49,2.49-2.62,4.43-2.93c0.34-0.06,0.74-0.51,0.88-0.87
		c0.57-1.54,1.08-3.1,1.56-4.67c0.27-0.89-0.09-1.35-1.06-1.41c-1.69-0.1-3.4-0.18-5.07-0.47c-4-0.7-6.29-3.18-6.62-7.2
		c-0.42-5.03,0.59-9.78,3.28-14.08c1.23-1.98,2.71-3.8,3.94-5.78c1.01-1.64,1.83-3.4,2.8-5.24c0.79,0.55,1.79,1.18,2.73,1.89
		c3.16,2.41,6.55,4.6,9.4,7.34c5.3,5.1,6.52,11.92,3.52,18.31c-0.78,1.66-2.1,3.12-3.39,4.45c-0.96,0.99-2.37,1.24-3.96,0.91
		c0.49-8.43,1.33-16.9-4.54-24.07c2.04,5,3.13,10.17,2.88,15.6C80.02,46.85,79.84,52.19,78.17,56.43"/>
</g>
</svg>
