<?xml version="1.0" encoding="utf-8"?>
<!-- Generator: Adobe Illustrator 22.0.0, SVG Export Plug-In . SVG Version: 6.00 Build 0)  -->
<svg version="1.1" id="Capa_1" xmlns="http://www.w3.org/2000/svg" xmlns:xlink="http://www.w3.org/1999/xlink" x="0px" y="0px"
	 viewBox="0 0 123.46 113.82" enable-background="new 0 0 123.46 113.82" xml:space="preserve">
<path fill="#D98731" d="M213.96,84.46c-2.76-6.09-5.44-12-8.27-18.24c5.35-2.17,10.49-4.44,15.77-6.33c2.82-1.01,5.7-0.21,8.22,1.4
	c2.58,1.65,5.08,3.41,7.6,5.15c3.41,2.35,7.17,3.6,11.31,3.74c2.04,0.07,4.08,0.11,6.11,0.3c1.22,0.11,2.44,0.46,2.62,2.03
	c0.16,1.39-0.46,2.3-2.12,2.86c-0.78,0.26-1.6,0.53-2.41,0.53c-5.1-0.02-10.2,0.04-15.28-0.26c-2.22-0.13-4.39-1.07-6.97-1.73
	c2.67,2.45,5.24,4.57,8.6,4.73c4.99,0.23,10,0.06,14.99-0.05c0.98-0.02,1.99-0.45,2.9-0.89c2.22-1.07,3.45-2.84,3.12-5.38
	c-0.12-0.91,0.21-1.27,0.92-1.68c3.02-1.76,5.97-3.64,9.03-5.34c1.47-0.82,3.06-1.47,4.67-1.95c0.82-0.25,1.86-0.13,2.7,0.13
	c2.44,0.75,3.21,3.24,1.58,5.19c-0.83,0.99-1.85,1.87-2.93,2.59c-8.52,5.61-17.12,11.1-25.59,16.78c-4.1,2.75-8.1,2.78-12.34,0.53
	c-4.38-2.32-8.82-4.5-13.18-6.87c-2.53-1.37-4.84-1.45-7.19,0.33C216.65,82.9,215.36,83.58,213.96,84.46"/>
<path fill="#D98731" d="M259.01,55.33c1.34,1.32,2.36,2.33,3.66,3.61c3.86-1.3,6.63-0.32,8.02,3.54c-1.55,0.9-3.13,1.82-4.72,2.74
	c-2.06,1.19-4.14,2.36-6.17,3.58c-0.72,0.44-1.27,0.49-2.13,0.16c-1.24-0.48-2.62-0.75-3.95-0.79c-3.51-0.11-7.03-0.23-10.32-1.55
	c-1.86-0.75-3.55-1.94-5.28-3c-1.08-0.66-0.99-1.66-0.07-2.23c1.06-0.66,2.34-0.98,3.53-1.44c0.41-0.16,0.99-0.14,1.24-0.43
	c2.19-2.52,4.51-2.85,7.51-0.9c1.11-1.49,2.49-2.62,4.43-2.93c0.34-0.06,0.74-0.51,0.88-0.87c0.57-1.54,1.08-3.1,1.56-4.67
	c0.27-0.89-0.09-1.35-1.06-1.41c-1.69-0.1-3.4-0.18-5.07-0.47c-4-0.7-6.29-3.18-6.63-7.2c-0.42-5.03,0.59-9.78,3.28-14.08
	c1.23-1.98,2.71-3.8,3.94-5.78c1.01-1.64,1.83-3.4,2.8-5.24c0.79,0.55,1.79,1.18,2.73,1.89c3.16,2.41,6.55,4.6,9.4,7.34
	c5.3,5.1,6.52,11.92,3.52,18.31c-0.78,1.66-2.1,3.12-3.39,4.45c-0.96,0.99-2.37,1.24-3.96,0.91c0.49-8.43,1.33-16.9-4.54-24.07
	c2.04,5,3.13,10.17,2.88,15.6C260.86,45.75,260.68,51.09,259.01,55.33"/>
<g>
	<path fill="#FFFFFF" d="M61.59,74.08c0.68,0.45,1.36,0.89,2.02,1.36c0.54,0.38,1.04,0.41,1.67,0.15
		c5.26-2.23,10.54-4.43,15.82-6.64c2.12-0.89,4.23-1.77,6.52-2.73c-0.48-0.69-0.84-1.36-1.35-1.91c-1.18-1.28-2.81-1.28-4.4-1.29
		c0-2.07-0.8-3.69-2.31-4.96c-1.47-1.24-3.24-1.81-5.1-2c-0.67-3.01-2.51-4.62-5.69-4.83c0.66-0.92,1.18-1.75,1.8-2.51
		c1.37-1.68,3.17-2.85,4.97-4c3.27-2.09,5.74-4.83,7.06-8.53c0.07-0.2,0.2-0.38,0.3-0.57c0.07,0.03,0.14,0.06,0.22,0.09
		c-0.21,2.18-0.83,4.25-1.77,6.24c-0.96,2.03-2.24,3.81-3.88,5.49c0.39,0.05,0.65,0.11,0.91,0.12c5.91,0.27,10.96-4.61,10.76-10.55
		c-0.07-1.97-0.36-3.97-0.86-5.88c-0.63-2.42-1.55-4.77-2.39-7.13c-0.4-1.14-1.59-1.44-2.32-0.65c-0.21,0.22-0.35,0.51-0.48,0.79
		c-0.71,1.55-1.74,2.86-2.99,4c-1.65,1.51-3.58,2.54-5.61,3.44c-3.59,1.59-5.36,4.95-4.55,8.79c0.27,1.26,0.83,2.46,1.29,3.77
		c-2.02,1.58-3.82,3.57-4.92,6.18c-1.39-1.73-3.1-2.77-5.26-3.06c-0.17-0.02-0.4-0.32-0.43-0.51c-0.07-0.54-0.02-1.1-0.08-1.65
		c-0.38-3.59-1.68-6.85-3.6-9.89c-2.13-3.38-4.89-6.36-6.41-10.12c-0.06-0.15-0.32-0.22-0.49-0.32c-0.11,0.19-0.35,0.39-0.32,0.56
		c0.15,1.06,0.27,2.14,0.56,3.17c0.64,2.25,2.02,4.12,3.35,5.99c2.67,3.75,3.98,7.92,3.96,12.52c0,0.41-0.13,0.58-0.5,0.72
		c-1.7,0.64-3,1.76-3.92,3.33c-0.11,0.19-0.49,0.38-0.71,0.35c-2.97-0.5-5.5,0.35-7.59,2.49c-0.98,1.01-1.67,2.21-1.98,3.7
		c1.63-0.56,3.16-1.11,4.71-1.61c2.16-0.7,4.42-1.05,6.58-0.34c4.56,1.51,9.1,3.09,13.56,4.88c2.81,1.13,4.42,4.45,4.04,7.39
		c-0.4,3.1-2.68,5.62-5.7,6.3C64.57,74.57,63.09,74.37,61.59,74.08"/>
	<path d="M24.86,68.75c0.5-0.98,1.36-1.42,2.38-1.77c7.01-2.42,14-4.88,20.99-7.35c2.18-0.77,4.36-0.86,6.53-0.07
		c3.64,1.32,7.29,2.63,10.91,4.02c2.71,1.04,3.36,4.29,1.3,6.19c-0.94,0.87-2.06,1.18-3.33,0.89c-3.29-0.74-6.58-1.49-9.87-2.22
		c-1.2-0.27-2.17,0.18-2.57,1.14c-0.41,0.97-0.06,1.95,0.98,2.65c2.63,1.76,5.27,3.51,7.9,5.26c0.58,0.38,1.15,0.78,1.74,1.15
		c1.48,0.94,3.03,1.08,4.66,0.39c5.03-2.11,10.06-4.22,15.1-6.32c3.31-1.39,6.62-2.79,9.93-4.15c2.42-1,4.82-0.34,6.19,1.65
		c1.67,2.42,0.93,5.81-1.71,7.1c-2.62,1.27-5.35,2.32-8.05,3.45c-7.28,3.06-14.58,6.08-21.84,9.18c-2.31,0.99-4.65,1.17-7.1,0.81
		c-3.79-0.55-7.59-1.04-11.39-1.55c-3.65-0.49-7.31-0.99-10.97-1.48c-0.31-0.04-0.62-0.06-0.93-0.06c-2.66,0-5.33-0.05-7.99,0.02
		c-1.35,0.04-2.33-0.38-2.88-1.63V68.75z"/>
	<path d="M61.59,74.08c1.51,0.29,2.98,0.49,4.5,0.15c3.02-0.68,5.3-3.21,5.7-6.3c0.38-2.95-1.23-6.26-4.04-7.39
		c-4.45-1.79-9-3.38-13.56-4.88c-2.16-0.71-4.42-0.36-6.58,0.34c-1.55,0.5-3.07,1.05-4.71,1.61c0.31-1.49,0.99-2.69,1.98-3.7
		c2.08-2.14,4.61-2.99,7.59-2.49c0.22,0.04,0.6-0.15,0.71-0.35c0.92-1.58,2.22-2.69,3.92-3.33c0.37-0.14,0.5-0.3,0.5-0.72
		c0.01-4.6-1.29-8.77-3.96-12.52c-1.33-1.87-2.71-3.74-3.35-5.99c-0.29-1.03-0.41-2.11-0.56-3.17c-0.02-0.17,0.21-0.37,0.32-0.56
		c0.17,0.11,0.43,0.17,0.49,0.32c1.52,3.76,4.27,6.75,6.41,10.12c1.92,3.04,3.22,6.3,3.6,9.89c0.06,0.55,0.01,1.11,0.08,1.65
		c0.03,0.19,0.26,0.49,0.43,0.51c2.15,0.29,3.87,1.32,5.26,3.06c1.1-2.6,2.9-4.59,4.92-6.18c-0.46-1.31-1.02-2.51-1.29-3.77
		c-0.81-3.84,0.96-7.2,4.55-8.79c2.03-0.9,3.96-1.93,5.61-3.44c1.25-1.14,2.29-2.45,2.99-4c0.13-0.28,0.27-0.57,0.48-0.79
		c0.73-0.8,1.92-0.49,2.32,0.65c0.84,2.36,1.76,4.71,2.39,7.13c0.5,1.91,0.79,3.91,0.86,5.88c0.2,5.93-4.86,10.82-10.76,10.55
		c-0.26-0.01-0.52-0.07-0.91-0.12c1.64-1.68,2.92-3.47,3.88-5.49c0.94-2,1.56-4.06,1.77-6.24c-0.07-0.03-0.14-0.06-0.22-0.09
		c-0.1,0.19-0.23,0.37-0.3,0.57c-1.32,3.7-3.79,6.44-7.06,8.53c-1.8,1.15-3.6,2.32-4.97,4c-0.62,0.76-1.14,1.59-1.8,2.51
		c3.18,0.21,5.02,1.82,5.69,4.83c1.86,0.19,3.63,0.75,5.1,2c1.51,1.27,2.31,2.9,2.31,4.96c1.6,0.01,3.22,0.01,4.4,1.29
		c0.5,0.54,0.87,1.22,1.35,1.91c-2.29,0.96-4.41,1.84-6.52,2.73c-5.27,2.21-10.55,4.41-15.82,6.64c-0.63,0.27-1.13,0.23-1.67-0.15
		C62.95,74.97,62.26,74.53,61.59,74.08"/>
</g>
</svg>
