<svg id="Capa_1" data-name="Capa 1" xmlns="http://www.w3.org/2000/svg" viewBox="0 0 64.56 68.98"><title>Sin título-1</title><path d="M41.8,61.83a24.54,24.54,0,0,1-9.69-.66C13.67,55,29.64,42.71,29.64,42.71s-11.89,5.82-7.28,16.34A36.09,36.09,0,0,1,11.88,47.93L5,46.59A31.64,31.64,0,0,0,34.18,66c9,0,17.71-5.39,23.27-12.75-3.61,3.33-8.5,7.36-16.36,8.94C41.55,62,41.8,61.83,41.8,61.83Z" transform="translate(-0.13 -0.13)" fill="#fff" stroke="#fff" stroke-miterlimit="10" stroke-width="0.25"/><path d="M34.18,6.44C47.69,5.1,57,13.22,61.66,20.43A30.06,30.06,0,0,0,34.18,2.71,31.64,31.64,0,0,0,5,46.58l6.88,1.35a26,26,0,0,1-3.8-13.58C8.08,19.93,19.84,7.86,34.18,6.44Z" transform="translate(-0.13 -0.13)" fill="#fff" stroke="#fff" stroke-miterlimit="10" stroke-width="0.25"/><path d="M39.27,10.27A24.24,24.24,0,0,0,12.76,30.63,22,22,0,1,1,41.87,58.1a24.26,24.26,0,0,0-2.6-47.83Z" transform="translate(-0.13 -0.13)" fill="#fff" stroke="#fff" stroke-miterlimit="10" stroke-width="0.25"/><path d="M31.25,55s-3.18-.89-4.32-.15A8,8,0,0,0,33.6,58.3l7.95-.09-.09-8a8,8,0,0,0-14.79-4c.86-.16,2.3-.56,2.92-.32,0,0-.09-1.3,1.87-1.6a2.16,2.16,0,0,1,.45,1.13,1.78,1.78,0,0,1,0,1.24A5.51,5.51,0,0,1,34.81,50s.61,2.22,1.26,2.49l1,.41-.9,2.26-1.4-.56a3.65,3.65,0,0,1-2.14.22A2.54,2.54,0,0,1,31.25,55Z" transform="translate(-0.13 -0.13)" fill="#fff" stroke="#fff" stroke-miterlimit="10" stroke-width="0.25"/><path d="M36.56,53.3c-.28-.12-.48.3-.48.3a.48.48,0,0,0,.12.62Z" transform="translate(-0.13 -0.13)" fill="#fff" stroke="#fff" stroke-miterlimit="10" stroke-width="0.25"/><path d="M33.42,49.57c-.61-.26-1,.44-1,.44l1.29.53A.76.76,0,0,0,33.42,49.57Z" transform="translate(-0.13 -0.13)" fill="#fff" stroke="#fff" stroke-miterlimit="10" stroke-width="0.25"/><path d="M23.15,38.7c2.3.59,3,3.47,3.1,5.83a8,8,0,0,0-5.54-13.77l-8,.09.1,8A8,8,0,0,0,18,46.16,3.29,3.29,0,0,1,19,44.69l-.75.2a.78.78,0,0,1-1-.32c-1.07-1,.44-2.16.44-2.16-.86-.48.35-1.22.35-1.22.43-.35.11-.6.11-.6L17,40.37c-.8.05-1,.34-1.05.42l.2-.46c.28-.67,1.27-.77,1.27-.77l.92.1c-.54-1.14.13-1.33.13-1.33.79-.29.67-.82.67-.82a.89.89,0,0,1,.83-1c.36,0,.3-.46.3-.46-.14-.61.44-.54.44-.54a1.76,1.76,0,0,0,.66.15.62.62,0,0,0,.37-.34c.47-.51,1,.16,1,.16.47.11.56-.17.56-.17.82-.57.94.44.94.44l-.14,1.05V37l.88.09c1.48.13,0,1.8,0,1.8Z" transform="translate(-0.13 -0.13)" fill="#fff" stroke="#fff" stroke-miterlimit="10" stroke-width="0.25"/><path d="M19.89,39.82a.66.66,0,1,0,1.32.13.68.68,0,0,0-.59-.74A.67.67,0,0,0,19.89,39.82Z" transform="translate(-0.13 -0.13)" fill="#fff" stroke="#fff" stroke-miterlimit="10" stroke-width="0.25"/><path d="M44.38,34.06l-.08-8-8,.1A8,8,0,0,0,29.13,31h3.39l1.65.12s-1.24-2,2.48-2.18c0,0-1.82,1.25-.5,2.47l1.59.44s1.2.28,1.11,1.26a2,2,0,0,0,.14,1.4l1.79,3.67a.93.93,0,0,1-.65,1.34L38.85,40s-.36.23-1.35-.3l-3.64-1a2.65,2.65,0,0,0-1.37.15l-2,.67a8,8,0,0,0,13.84-5.45Z" transform="translate(-0.13 -0.13)" fill="#fff" stroke="#fff" stroke-miterlimit="10" stroke-width="0.25"/><path d="M37.9,34.76c-.63-.18-.88.5-.88.5l1.32.36A.71.71,0,0,0,37.9,34.76Z" transform="translate(-0.13 -0.13)" fill="#fff" stroke="#fff" stroke-miterlimit="10" stroke-width="0.25"/><rect width="64.56" height="68.98" fill="none"/></svg>