<svg xmlns="http://www.w3.org/2000/svg" viewBox="0 0 168.77 180.79"><defs><style>.cls-1{fill:#53b36e;}.cls-2{fill:#ffd100;}.cls-3{fill:#e8505b;}.cls-4{fill:#3f76bb;}</style></defs><title>7Recurso 6</title><g id="Capa_2" data-name="Capa 2"><g id="Capa_12" data-name="Capa 12"><path class="cls-1" d="M66.77,176.35c-35.08-39.7,10.58-62.12,10.58-62.12s-45.61,35,7.06,52.79a69.32,69.32,0,0,0,27.64,1.85S95.39,178.34,66.77,176.35Z"/><path class="cls-2" d="M26.65,129.17a74.5,74.5,0,0,1-10.86-38.8c0-41.19,33.64-75.67,74.56-79.74,38.6-3.79,65.17,19.41,78.42,40h0A85.6,85.6,0,0,0,90.35,0,90.44,90.44,0,0,0,7,125.35Z"/><path class="cls-3" d="M156.71,144.36c-13,12-32,27.45-66.71,27.45-27,.05-50.28-21.16-63.35-42.64L7,125.35a90.34,90.34,0,0,0,83.34,55.44c25.65,0,50.55-15.42,66.36-36.43Z"/><path class="cls-4" d="M104.9,21.61A69.3,69.3,0,0,0,29.14,79.79a62.8,62.8,0,1,1,83.14,78.45A69.3,69.3,0,0,0,104.9,21.61Z"/><path class="cls-1" d="M111.08,135.83a22.73,22.73,0,0,0-42.24-11.42c2.49-.51,6.61-1.6,8.39-1,0,0-.25-3.62,5.31-4.44a5.47,5.47,0,0,1,1.3,3.19,4.79,4.79,0,0,1,0,3.47s6.81,3.09,8.31,9.33c0,0,1.71,6.34,3.59,7.09l2.87,1.17L96,149.7,92,148.1s-3.36,1.46-6.11.65c0,0-2.64,1.1-3.92.58,0,0-9.1-2.52-12.4-.4a22.78,22.78,0,0,0,19.07,9.83l22.7-.2Z"/><path class="cls-1" d="M97.13,144.51c-.82-.29-1.35.88-1.35.88-.54,1.27.36,1.77.36,1.77Z"/><path class="cls-1" d="M88.28,133.88c-1.48-.67-2.62,1.76-2.62,1.76l3.28,1.52C89.78,134.82,88.28,133.88,88.28,133.88Z"/><path class="cls-1" d="M47,119.91l-2.17.65a2.28,2.28,0,0,1-2.87-1c-3.09-3,1.22-6.19,1.22-6.19-2.37-1.4,1-3.49,1-3.49,1.25-1,.33-1.77.33-1.77l-3.42-.6c-2.27.09-2.85,1-2.94,1.27l.57-1.37c.75-1.85,3.62-2.15,3.62-2.15l2.57.22c-1.53-3.21.42-3.71.42-3.71,2.27-.87,1.9-2.4,1.9-2.4a2.55,2.55,0,0,1,2.34-2.82c1.05.13.88-1.3.88-1.3a1.14,1.14,0,0,1,1.27-1.56,5.09,5.09,0,0,0,2,.42,1.7,1.7,0,0,0,1-.93c1.3-1.52,2.87.45,2.87.45,1.3.31,1.57-.45,1.57-.45,2.35-1.69,2.68,1.21,2.68,1.21l-.33,3L61.5,98l2.5.2c4.24.37.07,5.16.07,5.16l-5.21-.55c6.49,1.67,8.41,9.91,8.76,16.64A22.72,22.72,0,0,0,51.85,80.09l-22.71.35.3,22.71A22.5,22.5,0,0,0,44,124.08,10.21,10.21,0,0,1,47,119.91Z"/><path class="cls-1" d="M51.65,104.29A1.94,1.94,0,0,0,49.53,106a1.91,1.91,0,0,0,1.62,2.12,2,2,0,0,0,2.12-1.74A1.93,1.93,0,0,0,51.65,104.29Z"/><path class="cls-1" d="M119.49,89.57l-.25-22.75-22.76.3A22.6,22.6,0,0,0,75.93,80.69l9.7,0,4.67.35s-3.57-5.77,7.11-6.21c0,0-5.26,3.59-1.47,7.06l4.56,1.2s3.39.85,3.17,3.64a5.56,5.56,0,0,0,.4,4l5.16,10.5a2.71,2.71,0,0,1-1.89,3.84l-3.67,1.43s-1,.57-3.86-.88l-10.39-2.82s-1.12-.37-3.89.45l-5.64,1.82A22.45,22.45,0,0,0,97,112.52,22.72,22.72,0,0,0,119.49,89.57Z"/><path class="cls-1" d="M100.93,91.52A2.32,2.32,0,0,0,98.38,93L102.2,94A2.12,2.12,0,0,0,100.93,91.52Z"/></g></g></svg>